999
dxfrw 0.6.3
  0
SECTION
  2
HEADER
  9
$ACADVER
  1
AC1021
  9
$DWGCODEPAGE
  3
ANSI_936
  9
$INSBASE
 10
0
 20
0
 30
0
  9
$EXTMIN
 10
16590.28058654799
 20
-2020.367161468224
 30
0
  9
$EXTMAX
 10
132816.7480270938
 20
113055.042081269
 30
0
  9
$LIMMIN
 10
0
 20
0
  9
$LIMMAX
 10
50000
 20
32000
  9
$ORTHOMODE
 70
    1
  9
$REGENMODE
 70
    1
  9
$FILLMODE
 70
    1
  9
$QTEXTMODE
 70
    0
  9
$MIRRTEXT
 70
    0
  9
$LTSCALE
 40
1000
  9
$ATTMODE
 70
    1
  9
$TEXTSIZE
 40
350
  9
$TRACEWID
 40
0.05
  9
$TEXTSTYLE
  7
YQ_DIM
  9
$CLAYER
  8
ref_line
  9
$CELTYPE
  6
DASH
  9
$CECOLOR
 62
  256
  9
$CELTSCALE
 40
1
  9
$DISPSILH
 70
    0
  9
$DIMSCALE
 40
500
  9
$DIMASZ
 40
1
  9
$DIMEXO
 40
3
  9
$DIMDLI
 40
6
  9
$DIMRND
 40
0
  9
$DIMDLE
 40
0
  9
$DIMEXE
 40
1.5
  9
$DIMTP
 40
0
  9
$DIMTM
 40
0
  9
$DIMTXT
 40
3
  9
$DIMCEN
 40
0
  9
$DIMTSZ
 40
0
  9
$DIMTOL
 70
    0
  9
$DIMLIM
 70
    0
  9
$DIMTIH
 70
    0
  9
$DIMTOH
 70
    0
  9
$DIMSE1
 70
    0
  9
$DIMSE2
 70
    0
  9
$DIMTAD
 70
    1
  9
$DIMZIN
 70
    0
  9
$DIMBLK
  1
YQTICK
  9
$DIMASO
 70
    1
  9
$DIMSHO
 70
    1
  9
$DIMPOST
  1

  9
$DIMAPOST
  1

  9
$DIMALT
 70
    0
  9
$DIMALTD
 70
    2
  9
$DIMALTF
 40
25.4
  9
$DIMLFAC
 40
1
  9
$DIMTOFL
 70
    1
  9
$DIMTVP
 40
0
  9
$DIMTIX
 70
    1
  9
$DIMSOXD
 70
    0
  9
$DIMSAH
 70
    0
  9
$DIMBLK1
  1

  9
$DIMBLK2
  1

  9
$DIMSTYLE
  2
yq500
  9
$DIMCLRD
 70
  256
  9
$DIMCLRE
 70
  256
  9
$DIMCLRT
 70
    7
  9
$DIMTFAC
 40
1
  9
$DIMGAP
 40
0.5
  9
$DIMJUST
 70
    0
  9
$DIMSD1
 70
    0
  9
$DIMSD2
 70
    0
  9
$DIMTOLJ
 70
    1
  9
$DIMTZIN
 70
    0
  9
$DIMALTZ
 70
    0
  9
$DIMALTTZ
 70
    0
  9
$DIMUPT
 70
    0
  9
$DIMDEC
 70
    0
  9
$DIMTDEC
 70
    4
  9
$DIMALTU
 70
    2
  9
$DIMALTTD
 70
    2
  9
$DIMTXSTY
  7
YQ_DIM
  9
$DIMAUNIT
 70
    0
  9
$DIMADEC
 70
    1
  9
$DIMALTRND
 40
0
  9
$DIMAZIN
 70
    2
  9
$DIMDSEP
 70
   46
  9
$DIMATFIT
 70
    2
  9
$DIMFRAC
 70
    0
  9
$DIMLDRBLK
  1

  9
$DIMLUNIT
 70
    2
  9
$DIMLWD
 70
   -2
  9
$DIMLWE
 70
   -2
  9
$DIMTMOVE
 70
    2
  9
$DIMFXL
 40
1
  9
$DIMFXLON
 70
    0
  9
$DIMJOGANG
 40
0.7853981633974483
  9
$DIMTFILL
 70
    0
  9
$DIMTFILLCLR
 70
    0
  9
$DIMARCSYM
 70
    0
  9
$DIMLTYPE
  6

  9
$DIMLTEX1
  6

  9
$DIMLTEX2
  6

  9
$LUNITS
 70
    2
  9
$LUPREC
 70
    0
  9
$SKETCHINC
 40
0.1
  9
$FILLETRAD
 40
1000
  9
$AUNITS
 70
    0
  9
$AUPREC
 70
    0
  9
$MENU
  1
.
  9
$ELEVATION
 40
0
  9
$PELEVATION
 40
0
  9
$THICKNESS
 40
0
  9
$LIMCHECK
 70
    0
  9
$CHAMFERA
 40
0
  9
$CHAMFERB
 40
0
  9
$CHAMFERC
 40
0
  9
$CHAMFERD
 40
0
  9
$SKPOLY
 70
    0
  9
$USRTIMER
 70
    1
  9
$ANGBASE
 50
0
  9
$ANGDIR
 70
    0
  9
$PDMODE
 70
    0
  9
$PDSIZE
 40
0
  9
$PLINEWID
 40
100
  9
$SPLFRAME
 70
    0
  9
$SPLINETYPE
 70
    6
  9
$SPLINESEGS
 70
    8
  9
$HANDSEED
  5
20000
  9
$SURFTAB1
 70
    6
  9
$SURFTAB2
 70
    6
  9
$SURFTYPE
 70
    6
  9
$SURFU
 70
    6
  9
$SURFV
 70
    6
  9
$UCSBASE
  2

  9
$UCSNAME
  2

  9
$UCSORG
 10
0
 20
0
 30
0
  9
$UCSXDIR
 10
1
 20
0
 30
0
  9
$UCSYDIR
 10
0
 20
1
 30
0
  9
$UCSORTHOREF
  2

  9
$UCSORTHOVIEW
 70
    0
  9
$UCSORGTOP
 10
0
 20
0
 30
0
  9
$UCSORGBOTTOM
 10
0
 20
0
 30
0
  9
$UCSORGLEFT
 10
0
 20
0
 30
0
  9
$UCSORGRIGHT
 10
0
 20
0
 30
0
  9
$UCSORGFRONT
 10
0
 20
0
 30
0
  9
$UCSORGBACK
 10
0
 20
0
 30
0
  9
$PUCSBASE
  2

  9
$PUCSNAME
  2

  9
$PUCSORG
 10
0
 20
0
 30
0
  9
$PUCSXDIR
 10
1
 20
0
 30
0
  9
$PUCSYDIR
 10
0
 20
1
 30
0
  9
$PUCSORTHOREF
  2

  9
$PUCSORTHOVIEW
 70
    0
  9
$PUCSORGTOP
 10
0
 20
0
 30
0
  9
$PUCSORGBOTTOM
 10
0
 20
0
 30
0
  9
$PUCSORGLEFT
 10
0
 20
0
 30
0
  9
$PUCSORGRIGHT
 10
0
 20
0
 30
0
  9
$PUCSORGFRONT
 10
0
 20
0
 30
0
  9
$PUCSORGBACK
 10
0
 20
0
 30
0
  9
$USERI1
 70
    0
  9
$USERI2
 70
    0
  9
$USERI3
 70
    0
  9
$USERI4
 70
    0
  9
$USERI5
 70
    0
  9
$USERR1
 40
0
  9
$USERR2
 40
0
  9
$USERR3
 40
0
  9
$USERR4
 40
0
  9
$USERR5
 40
0
  9
$WORLDVIEW
 70
    1
  9
$SHADEDGE
 70
    3
  9
$SHADEDIF
 70
   70
  9
$TILEMODE
 70
    1
  9
$MAXACTVP
 70
   64
  9
$PINSBASE
 10
0
 20
0
 30
0
  9
$PLIMCHECK
 70
    0
  9
$PEXTMIN
 10
0
 20
0
 30
0
  9
$PEXTMAX
 10
0
 20
0
 30
0
  9
$GRIDMODE
 70
    1
  9
$SNAPSTYLE
 70
    0
  9
$PLIMMIN
 10
0
 20
0
  9
$PLIMMAX
 10
12
 20
9
  9
$UNITMODE
 70
    0
  9
$VISRETAIN
 70
    1
  9
$PLINEGEN
 70
    0
  9
$PSLTSCALE
 70
    1
  9
$TREEDEPTH
 70
 3020
  9
$CMLSTYLE
  2
Standard
  9
$CMLJUST
 70
    0
  9
$CMLSCALE
 40
1
  9
$PROXYGRAPHICS
 70
    1
  9
$MEASUREMENT
 70
    0
  9
$CELWEIGHT
370
   -1
  9
$ENDCAPS
280
    0
  9
$JOINSTYLE
280
    0
  9
$LWDISPLAY
290
    1
  9
$INSUNITS
 70
    0
  9
$HYPERLINKBASE
  1

  9
$STYLESHEET
  1

  9
$XEDIT
290
    1
  9
$CEPSNTYPE
380
    0
  9
$PSTYLEMODE
290
    1
  9
$EXTNAMES
290
    1
  9
$PSVPSCALE
 40
0
  9
$OLESTARTUP
290
    0
  9
$SORTENTS
280
  127
  9
$INDEXCTL
280
    0
  9
$HIDETEXT
280
    1
  9
$XCLIPFRAME
290
    0
  9
$HALOGAP
280
    0
  9
$OBSCOLOR
 70
  257
  9
$OBSLTYPE
280
    0
  9
$INTERSECTIONDISPLAY
280
    0
  9
$INTERSECTIONCOLOR
 70
  257
  9
$DIMASSOC
280
    2
  9
$PROJECTNAME
  1

  9
$CAMERADISPLAY
290
    0
  9
$LENSLENGTH
 40
50
  9
$CAMERAHEIGHT
 40
0
  9
$STEPSPERSEC
 40
2
  9
$STEPSIZE
 40
6
  9
$3DDWFPREC
 40
2
  9
$PSOLWIDTH
 40
0.25
  9
$PSOLHEIGHT
 40
4
  9
$LOFTANG1
 40
1.570796326794896
  9
$LOFTANG2
 40
1.570796326794896
  9
$LOFTMAG1
 40
0
  9
$LOFTMAG2
 40
0
  9
$LOFTPARAM
 70
    7
  9
$LOFTNORMALS
280
    1
  9
$LATITUDE
 40
37.795
  9
$LONGITUDE
 40
-122.394
  9
$NORTHDIRECTION
 40
0
  9
$TIMEZONE
 70
-8000
  9
$LIGHTGLYPHDISPLAY
280
    1
  9
$TILEMODELIGHTSYNCH
280
    1
  9
$SOLIDHIST
280
    0
  9
$SHOWHIST
280
    1
  9
$DWFFRAME
280
    2
  9
$DGNFRAME
280
    0
  9
$REALWORLDSCALE
290
    1
  9
$INTERFERECOLOR
 62
    1
  9
$CSHADOW
280
    0
  9
$SHADOWPLANELOCATION
 40
0
  0
ENDSEC
  0
SECTION
  2
CLASSES
  0
ENDSEC
  0
SECTION
  2
TABLES
  0
TABLE
  2
VPORT
  5
8
330
0
100
AcDbSymbolTable
 70
    1
  0
VPORT
  5
31
330
2
100
AcDbSymbolTableRecord
100
AcDbViewportTableRecord
  2
*ACTIVE
 70
    0
 10
0
 20
0
 11
1
 21
1
 12
62625.7037380871
 22
56842.58823898987
 13
0
 23
0
 14
10
 24
10
 15
10
 25
10
 16
0
 26
0
 36
1
 17
0
 27
0
 37
0
 40
80667.04696176649
 41
1.806372549019608
 42
50
 43
0
 44
0
 50
0
 51
0
 71
    0
 72
  100
 73
    1
 74
    3
 75
    0
 76
    1
 77
    0
 78
    0
281
    0
 65
    1
110
0
120
0
130
0
111
1
121
0
131
0
112
0
122
1
132
0
 79
    0
146
0
348
10020
 60
    7
 61
    5
292
1
282
    1
141
0
142
0
 63
  250
421
3358443
  0
ENDTAB
  0
TABLE
  2
LTYPE
  5
5
330
0
100
AcDbSymbolTable
 70
    4
  0
LTYPE
  5
14
330
5
100
AcDbSymbolTableRecord
100
AcDbLinetypeTableRecord
  2
ByBlock
 70
    0
  3

 72
   65
 73
    0
 40
0
  0
LTYPE
  5
15
330
5
100
AcDbSymbolTableRecord
100
AcDbLinetypeTableRecord
  2
ByLayer
 70
    0
  3

 72
   65
 73
    0
 40
0
  0
LTYPE
  5
16
330
5
100
AcDbSymbolTableRecord
100
AcDbLinetypeTableRecord
  2
Continuous
 70
    0
  3
Solid line
 72
   65
 73
    0
 40
0
  0
LTYPE
  5
32
330
5
100
AcDbSymbolTableRecord
100
AcDbLinetypeTableRecord
  2
DOT
 70
    0
  3
Dot . . . . . . . . . . . . . . . . . . . . . .
 72
   65
 73
    2
 40
6.35
 49
0
 74
    0
 49
-6.35
 74
    0
  0
LTYPE
  5
33
330
5
100
AcDbSymbolTableRecord
100
AcDbLinetypeTableRecord
  2
DOTTINY
 70
    0
  3
Dot (.15x) .....................................
 72
   65
 73
    2
 40
0.9525
 49
0
 74
    0
 49
-0.9525
 74
    0
  0
LTYPE
  5
34
330
5
100
AcDbSymbolTableRecord
100
AcDbLinetypeTableRecord
  2
DOT2
 70
    0
  3
Dot (.5x) .....................................
 72
   65
 73
    2
 40
3.175
 49
0
 74
    0
 49
-3.175
 74
    0
  0
LTYPE
  5
35
330
5
100
AcDbSymbolTableRecord
100
AcDbLinetypeTableRecord
  2
DOTX2
 70
    0
  3
Dot (2x) .  .  .  .  .  .  .  .  .  .  .  .  .
 72
   65
 73
    2
 40
12.7
 49
0
 74
    0
 49
-12.7
 74
    0
  0
LTYPE
  5
36
330
5
100
AcDbSymbolTableRecord
100
AcDbLinetypeTableRecord
  2
DASHED
 70
    0
  3
Dashed _ _ _ _ _ _ _ _ _ _ _ _ _ _ _ _ _
 72
   65
 73
    2
 40
19.05
 49
12.7
 74
    0
 49
-6.35
 74
    0
  0
LTYPE
  5
37
330
5
100
AcDbSymbolTableRecord
100
AcDbLinetypeTableRecord
  2
DASHEDTINY
 70
    0
  3
Dashed (.15x) _ _ _ _ _ _ _ _ _ _ _ _ _ _ _ _ _
 72
   65
 73
    2
 40
2.8575
 49
1.905
 74
    0
 49
-0.9525
 74
    0
  0
LTYPE
  5
38
330
5
100
AcDbSymbolTableRecord
100
AcDbLinetypeTableRecord
  2
DASHED2
 70
    0
  3
Dashed (.5x) _ _ _ _ _ _ _ _ _ _ _ _ _ _ _ _ _
 72
   65
 73
    2
 40
9.524999999999999
 49
6.35
 74
    0
 49
-3.175
 74
    0
  0
LTYPE
  5
39
330
5
100
AcDbSymbolTableRecord
100
AcDbLinetypeTableRecord
  2
DASHEDX2
 70
    0
  3
Dashed (2x) ____  ____  ____  ____  ____  ___
 72
   65
 73
    2
 40
38.09999999999999
 49
25.4
 74
    0
 49
-12.7
 74
    0
  0
LTYPE
  5
3A
330
5
100
AcDbSymbolTableRecord
100
AcDbLinetypeTableRecord
  2
DASHDOT
 70
    0
  3
Dash dot __ . __ . __ . __ . __ . __ . __ . __
 72
   65
 73
    4
 40
25.4
 49
12.7
 74
    0
 49
-6.35
 74
    0
 49
0
 74
    0
 49
-6.35
 74
    0
  0
LTYPE
  5
3B
330
5
100
AcDbSymbolTableRecord
100
AcDbLinetypeTableRecord
  2
DASHDOTTINY
 70
    0
  3
Dash dot (.15x) _._._._._._._._._._._._._._._.
 72
   65
 73
    4
 40
3.81
 49
1.905
 74
    0
 49
-0.9525
 74
    0
 49
0
 74
    0
 49
-0.9525
 74
    0
  0
LTYPE
  5
3C
330
5
100
AcDbSymbolTableRecord
100
AcDbLinetypeTableRecord
  2
DASHDOT2
 70
    0
  3
Dash dot (.5x) _._._._._._._._._._._._._._._.
 72
   65
 73
    4
 40
12.7
 49
6.35
 74
    0
 49
-3.175
 74
    0
 49
0
 74
    0
 49
-3.175
 74
    0
  0
LTYPE
  5
3D
330
5
100
AcDbSymbolTableRecord
100
AcDbLinetypeTableRecord
  2
DASHDOTX2
 70
    0
  3
Dash dot (2x) ____  .  ____  .  ____  .  ___
 72
   65
 73
    4
 40
50.8
 49
25.4
 74
    0
 49
-12.7
 74
    0
 49
0
 74
    0
 49
-12.7
 74
    0
  0
LTYPE
  5
3E
330
5
100
AcDbSymbolTableRecord
100
AcDbLinetypeTableRecord
  2
DIVIDE
 70
    0
  3
Divide ____ . . ____ . . ____ . . ____ . . ____
 72
   65
 73
    6
 40
31.75
 49
12.7
 74
    0
 49
-6.35
 74
    0
 49
0
 74
    0
 49
-6.35
 74
    0
 49
0
 74
    0
 49
-6.35
 74
    0
  0
LTYPE
  5
3F
330
5
100
AcDbSymbolTableRecord
100
AcDbLinetypeTableRecord
  2
DIVIDETINY
 70
    0
  3
Divide (.15x) __..__..__..__..__..__..__..__.._
 72
   65
 73
    6
 40
4.7625
 49
1.905
 74
    0
 49
-0.9525
 74
    0
 49
0
 74
    0
 49
-0.9525
 74
    0
 49
0
 74
    0
 49
-0.9525
 74
    0
  0
LTYPE
  5
40
330
5
100
AcDbSymbolTableRecord
100
AcDbLinetypeTableRecord
  2
DIVIDE2
 70
    0
  3
Divide (.5x) __..__..__..__..__..__..__..__.._
 72
   65
 73
    6
 40
15.875
 49
6.35
 74
    0
 49
-3.175
 74
    0
 49
0
 74
    0
 49
-3.175
 74
    0
 49
0
 74
    0
 49
-3.175
 74
    0
  0
LTYPE
  5
41
330
5
100
AcDbSymbolTableRecord
100
AcDbLinetypeTableRecord
  2
DIVIDEX2
 70
    0
  3
Divide (2x) ________  .  .  ________  .  .  _
 72
   65
 73
    6
 40
63.5
 49
25.4
 74
    0
 49
-12.7
 74
    0
 49
0
 74
    0
 49
-12.7
 74
    0
 49
0
 74
    0
 49
-12.7
 74
    0
  0
LTYPE
  5
42
330
5
100
AcDbSymbolTableRecord
100
AcDbLinetypeTableRecord
  2
BORDER
 70
    0
  3
Border __ __ . __ __ . __ __ . __ __ . __ __ .
 72
   65
 73
    6
 40
44.45
 49
12.7
 74
    0
 49
-6.35
 74
    0
 49
12.7
 74
    0
 49
-6.35
 74
    0
 49
0
 74
    0
 49
-6.35
 74
    0
  0
LTYPE
  5
43
330
5
100
AcDbSymbolTableRecord
100
AcDbLinetypeTableRecord
  2
BORDERTINY
 70
    0
  3
Border (.15x) __.__.__.__.__.__.__.__.__.__.__.
 72
   65
 73
    6
 40
6.6675
 49
1.905
 74
    0
 49
-0.9525
 74
    0
 49
1.905
 74
    0
 49
-0.9525
 74
    0
 49
0
 74
    0
 49
-0.9525
 74
    0
  0
LTYPE
  5
44
330
5
100
AcDbSymbolTableRecord
100
AcDbLinetypeTableRecord
  2
BORDER2
 70
    0
  3
Border (.5x) __.__.__.__.__.__.__.__.__.__.__.
 72
   65
 73
    6
 40
22.225
 49
6.35
 74
    0
 49
-3.175
 74
    0
 49
6.35
 74
    0
 49
-3.175
 74
    0
 49
0
 74
    0
 49
-3.175
 74
    0
  0
LTYPE
  5
45
330
5
100
AcDbSymbolTableRecord
100
AcDbLinetypeTableRecord
  2
BORDERX2
 70
    0
  3
Border (2x) ____  ____  .  ____  ____  .  ___
 72
   65
 73
    6
 40
88.89999999999999
 49
25.4
 74
    0
 49
-12.7
 74
    0
 49
25.4
 74
    0
 49
-12.7
 74
    0
 49
0
 74
    0
 49
-12.7
 74
    0
  0
LTYPE
  5
46
330
5
100
AcDbSymbolTableRecord
100
AcDbLinetypeTableRecord
  2
CENTER
 70
    0
  3
Center ____ _ ____ _ ____ _ ____ _ ____ _ ____
 72
   65
 73
    4
 40
50.8
 49
31.75
 74
    0
 49
-6.35
 74
    0
 49
6.35
 74
    0
 49
-6.35
 74
    0
  0
LTYPE
  5
47
330
5
100
AcDbSymbolTableRecord
100
AcDbLinetypeTableRecord
  2
CENTERTINY
 70
    0
  3
Center (.15x) ___ _ ___ _ ___ _ ___ _ ___ _ ___
 72
   65
 73
    4
 40
7.619999999999999
 49
4.7625
 74
    0
 49
-0.9525
 74
    0
 49
0.9525
 74
    0
 49
-0.9525
 74
    0
  0
LTYPE
  5
48
330
5
100
AcDbSymbolTableRecord
100
AcDbLinetypeTableRecord
  2
CENTER2
 70
    0
  3
Center (.5x) ___ _ ___ _ ___ _ ___ _ ___ _ ___
 72
   65
 73
    4
 40
28.575
 49
19.05
 74
    0
 49
-3.175
 74
    0
 49
3.175
 74
    0
 49
-3.175
 74
    0
  0
LTYPE
  5
49
330
5
100
AcDbSymbolTableRecord
100
AcDbLinetypeTableRecord
  2
CENTERX2
 70
    0
  3
Center (2x) ________  __  ________  __  _____
 72
   65
 73
    4
 40
101.6
 49
63.5
 74
    0
 49
-12.7
 74
    0
 49
12.7
 74
    0
 49
-12.7
 74
    0
  0
ENDTAB
  0
TABLE
  2
LAYER
  5
2
330
0
100
AcDbSymbolTable
 70
    1
  0
LAYER
  5
10
330
2
100
AcDbSymbolTableRecord
100
AcDbLayerTableRecord
  2
0
 70
    4
 62
    7
  6
CONTINUOUS
370
   -3
390
F
  0
LAYER
  5
4A
330
2
100
AcDbSymbolTableRecord
100
AcDbLayerTableRecord
  2
ASHADE
 70
    4
 62
    7
  6
CONTINUOUS
370
   -3
390
F
  0
LAYER
  5
4B
330
2
100
AcDbSymbolTableRecord
100
AcDbLayerTableRecord
  2
Defpoints
 70
    4
 62
    7
  6
CONTINUOUS
290
0
370
   -3
390
F
  0
LAYER
  5
4C
330
2
100
AcDbSymbolTableRecord
100
AcDbLayerTableRecord
  2
PUB_DIM
 70
    4
 62
    3
  6
CONTINUOUS
370
   -3
390
F
  0
LAYER
  5
4D
330
2
100
AcDbSymbolTableRecord
100
AcDbLayerTableRecord
  2
YQ_DIM
 70
    5
 62
    3
  6
CONTINUOUS
370
   -3
390
F
  0
LAYER
  5
4E
330
2
100
AcDbSymbolTableRecord
100
AcDbLayerTableRecord
  2
ref_line
 70
    0
 62
    1
  6
CONTINUOUS
370
  100
390
F
  0
ENDTAB
  0
TABLE
  2
STYLE
  5
3
330
0
100
AcDbSymbolTable
 70
    3
  0
STYLE
  5
4F
330
2
100
AcDbSymbolTableRecord
100
AcDbTextStyleTableRecord
  2
Standard
 70
    0
 40
0
 41
1
 50
0
 71
    0
 42
1
  3
txt
  4

  0
ENDTAB
  0
TABLE
  2
VIEW
  5
6
330
0
100
AcDbSymbolTable
 70
    0
  0
ENDTAB
  0
TABLE
  2
UCS
  5
7
330
0
100
AcDbSymbolTable
 70
    0
  0
ENDTAB
  0
TABLE
  2
APPID
  5
9
330
0
100
AcDbSymbolTable
 70
    1
  0
APPID
  5
12
330
9
100
AcDbSymbolTableRecord
100
AcDbRegAppTableRecord
  2
ACAD
 70
    0
  0
APPID
  5
50
330
9
100
AcDbSymbolTableRecord
100
AcDbRegAppTableRecord
  2
LibreCad
 70
    0
  0
ENDTAB
  0
TABLE
  2
DIMSTYLE
  5
A
330
0
100
AcDbSymbolTable
 70
    1
100
AcDbDimStyleTable
 71
    1
  0
DIMSTYLE
105
51
330
A
100
AcDbSymbolTableRecord
100
AcDbDimStyleTableRecord
  2
Standard
 70
    0
 40
500
 41
1
 42
3
 43
0.38
 44
1.5
 45
0
 46
0
 47
0
 48
0
 49
1
140
3
141
0.09
142
0
143
25.4
144
1
145
0
146
1
147
0.5
148
0
 71
    0
 72
    0
 73
    0
 74
    1
 75
    0
 76
    0
 77
    0
 78
    0
 79
    2
170
    0
171
    2
172
    0
173
    0
174
    0
175
    0
176
  256
177
  256
178
    7
179
    1
271
    0
272
    4
273
    2
274
    2
275
    0
276
    0
277
    2
278
   46
279
    0
280
    0
281
    0
282
    0
283
    1
284
    0
285
    0
286
    0
288
    0
289
    3
340
YQ_DIM
341

371
   -2
372
   -2
  0
ENDTAB
  0
TABLE
  2
BLOCK_RECORD
  5
1
330
0
100
AcDbSymbolTable
 70
    2
  0
BLOCK_RECORD
  5
1F
330
1
100
AcDbSymbolTableRecord
100
AcDbBlockTableRecord
  2
*Model_Space
 70
    0
280
    1
281
    0
  0
BLOCK_RECORD
  5
1E
330
1
100
AcDbSymbolTableRecord
100
AcDbBlockTableRecord
  2
*Paper_Space
 70
    0
280
    1
281
    0
  0
BLOCK_RECORD
  5
52
330
1
100
AcDbSymbolTableRecord
100
AcDbBlockTableRecord
  2
_DIMX
 70
    0
280
    1
281
    0
  0
BLOCK_RECORD
  5
55
330
1
100
AcDbSymbolTableRecord
100
AcDbBlockTableRecord
  2
_ArchTick
 70
    0
280
    1
281
    0
  0
BLOCK_RECORD
  5
58
330
1
100
AcDbSymbolTableRecord
100
AcDbBlockTableRecord
  2
YQTICK
 70
    0
280
    1
281
    0
  0
ENDTAB
  0
ENDSEC
  0
SECTION
  2
BLOCKS
  0
BLOCK
  5
20
330
1F
100
AcDbEntity
  8
0
100
AcDbBlockBegin
  2
*Model_Space
 70
    0
 10
0
 20
0
 30
0
  3
*Model_Space
  1

  0
ENDBLK
  5
21
330
1F
100
AcDbEntity
  8
0
100
AcDbBlockEnd
  0
BLOCK
  5
1C
330
1B
100
AcDbEntity
  8
0
100
AcDbBlockBegin
  2
*Paper_Space
 70
    0
 10
0
 20
0
 30
0
  3
*Paper_Space
  1

  0
ENDBLK
  5
1D
330
1F
100
AcDbEntity
  8
0
100
AcDbBlockEnd
  0
BLOCK
  5
53
330
52
100
AcDbEntity
  8
0
100
AcDbBlockBegin
  2
_DIMX
 70
    0
 10
0
 20
0
  3
_DIMX
  1

  0
LINE
  5
5B
100
AcDbEntity
  8
0
  6
ByLayer
 62
  256
370
   -1
100
AcDbLine
 10
-150
 20
0
 11
150
 21
0
  0
LWPOLYLINE
  5
5C
100
AcDbEntity
  8
0
  6
ByLayer
 62
  256
370
   -1
100
AcDbPolyline
 90
    2
 70
    0
 43
0
 10
-70
 20
-70
 10
70
 20
70
  0
ENDBLK
  5
54
330
52
100
AcDbEntity
  8
0
100
AcDbBlockEnd
  0
BLOCK
  5
56
330
55
100
AcDbEntity
  8
0
100
AcDbBlockBegin
  2
_ArchTick
 70
    0
 10
0
 20
0
  3
_ArchTick
  1

  0
LWPOLYLINE
  5
5D
100
AcDbEntity
  8
0
  6
ByBlock
 62
    0
370
   -1
100
AcDbPolyline
 90
    2
 70
    0
 43
0
 10
-0.5
 20
-0.5
 10
0.5
 20
0.5
  0
ENDBLK
  5
57
330
55
100
AcDbEntity
  8
0
100
AcDbBlockEnd
  0
BLOCK
  5
59
330
58
100
AcDbEntity
  8
0
100
AcDbBlockBegin
  2
YQTICK
 70
    0
 10
0
 20
0
  3
YQTICK
  1

  0
LWPOLYLINE
  5
5E
100
AcDbEntity
  8
0
  6
ByLayer
 62
  256
370
   -1
100
AcDbPolyline
 90
    2
 70
    0
 43
0
 10
0.5303300858899105
 20
0.5303300858899106
 10
-0.5303300858899106
 20
-0.5303300858899105
  0
LINE
  5
5F
100
AcDbEntity
  8
0
  6
ByLayer
 62
  256
370
   -1
100
AcDbLine
 10
-1
 20
1e-16
 11
1
 21
1e-16
  0
ENDBLK
  5
5A
330
58
100
AcDbEntity
  8
0
100
AcDbBlockEnd
  0
ENDSEC
  0
SECTION
  2
ENTITIES
  0
LINE
  5
60
100
AcDbEntity
  8
0
  6
ByLayer
 62
    1
370
   -1
100
AcDbLine
 10
18750
 20
113050
 11
132750
 21
113050
  0
LINE
  5
61
100
AcDbEntity
  8
0
  6
ByLayer
 62
    1
370
   -1
100
AcDbLine
 10
132750
 20
113050
 11
132750
 21
-950
  0
LINE
  5
62
100
AcDbEntity
  8
0
  6
ByLayer
 62
    1
370
   -1
100
AcDbLine
 10
132750
 20
-950
 11
18750
 21
-950
  0
LINE
  5
63
100
AcDbEntity
  8
0
  6
ByLayer
 62
    1
370
   -1
100
AcDbLine
 10
18750
 20
-950
 11
18750
 21
113050
  0
LINE
  5
64
100
AcDbEntity
  8
0
  6
ByLayer
 62
    7
370
   -1
100
AcDbLine
 10
18750
 20
17050
 11
18750
 21
91050
  0
LINE
  5
65
100
AcDbEntity
  8
0
  6
ByLayer
 62
    7
370
   -1
100
AcDbLine
 10
120750
 20
-950
 11
36750
 21
-950.0000000000072
  0
LINE
  5
66
100
AcDbEntity
  8
0
  6
ByLayer
 62
    7
370
   -1
100
AcDbLine
 10
40750
 20
113050
 11
114750
 21
113050
  0
LINE
  5
67
100
AcDbEntity
  8
0
  6
ByLayer
 62
    7
370
   -1
100
AcDbLine
 10
132750
 20
95550
 11
132750
 21
11050
  0
LINE
  5
68
100
AcDbEntity
  8
0
  6
ByLayer
 62
    7
370
   -1
100
AcDbLine
 10
65750
 20
83050
 11
65750
 21
104050
  0
LINE
  5
69
100
AcDbEntity
  8
0
  6
ByLayer
 62
    7
370
   -1
100
AcDbLine
 10
78750.00000000003
 20
105050
 11
90750.00000000033
 21
105050
  0
LINE
  5
6A
100
AcDbEntity
  8
0
  6
ByLayer
 62
    7
370
   -1
100
AcDbLine
 10
107750
 20
104050
 11
107750.0000000001
 21
83050
  0
LINE
  5
6B
100
AcDbEntity
  8
0
  6
ByLayer
 62
    7
370
   -1
100
AcDbLine
 10
27750
 20
82050
 11
64750
 21
82050
  0
LINE
  5
6C
100
AcDbEntity
  8
0
  6
ByLayer
 62
    7
370
   -1
100
AcDbLine
 10
90750.00000000033
 20
7050
 11
78750.00000000003
 21
7050
  0
LINE
  5
6D
100
AcDbEntity
  8
0
  6
ByLayer
 62
    7
370
   -1
100
AcDbLine
 10
124750.0000000002
 20
65050.00000000001
 11
124750
 21
13050
  0
LINE
  5
6E
100
AcDbEntity
  8
0
  6
ByLayer
 62
    7
370
   -1
100
AcDbLine
 10
26750
 20
83049.99999999999
 11
26750
 21
91050
  0
LINE
  5
6F
100
AcDbEntity
  8
0
  6
ByLayer
 62
    7
370
   -1
100
AcDbLine
 10
27750
 20
66049.99999999999
 11
64750
 21
66050
  0
LINE
  5
70
100
AcDbEntity
  8
0
  6
ByLayer
 62
    7
370
   -1
100
AcDbLine
 10
77750.00000000003
 20
8050
 11
77750.00000000003
 21
65050
  0
LINE
  5
71
100
AcDbEntity
  8
0
  6
ByLayer
 62
    7
370
   -1
100
AcDbLine
 10
91750.00000000016
 20
104050
 11
91750.00000000032
 21
83050
  0
LINE
  5
72
100
AcDbEntity
  8
0
  6
ByLayer
 62
    7
370
   -1
100
AcDbLine
 10
77750.00000000003
 20
83050
 11
77750.00000000003
 21
104050
  0
LINE
  5
73
100
AcDbEntity
  8
0
  6
ByLayer
 62
    7
370
   -1
100
AcDbLine
 10
91750.00000000033
 20
65050
 11
91750.00000000016
 21
8050
  0
LINE
  5
74
100
AcDbEntity
  8
0
  6
ByLayer
 62
    7
370
   -1
100
AcDbLine
 10
107750.0000000001
 20
65050
 11
107750
 21
8050
  0
LINE
  5
75
100
AcDbEntity
  8
0
  6
ByLayer
 62
    7
370
   -1
100
AcDbLine
 10
78750.00000000003
 20
66050
 11
90750.00000000033
 21
66050
  0
LINE
  5
76
100
AcDbEntity
  8
0
  6
ByLayer
 62
    7
370
   -1
100
AcDbLine
 10
108750.0000000001
 20
66050
 11
123750.0000000002
 21
66050.00000000001
  0
LINE
  5
77
100
AcDbEntity
  8
0
  6
ByLayer
 62
    7
370
   -1
100
AcDbLine
 10
78750.00000000003
 20
82050
 11
90750.00000000033
 21
82050
  0
LINE
  5
78
100
AcDbEntity
  8
0
  6
ByLayer
 62
    7
370
   -1
100
AcDbLine
 10
108750.0000000001
 20
82050
 11
123750.0000000002
 21
82050
  0
ARC
  5
79
100
AcDbEntity
  8
0
  6
ByLayer
 62
    7
370
   -1
100
AcDbCircle
 10
40750
 20
91050
 40
13999.99999999999
100
AcDbArc
 50
90
 51
180
  0
LWPOLYLINE
  5
7A
100
AcDbEntity
  8
0
  6
ByLayer
 62
    2
370
   -1
100
AcDbPolyline
 90
    2
 70
    0
 43
0
 10
27750
 20
74049.99999999999
 10
66750
 20
74050
  0
LWPOLYLINE
  5
7B
100
AcDbEntity
  8
0
  6
ByLayer
 62
    2
370
   -1
100
AcDbPolyline
 90
    2
 70
    0
 43
0
 10
77750.00000000003
 20
74050
 10
90750.00000000033
 20
74050
  0
LWPOLYLINE
  5
7C
100
AcDbEntity
  8
0
  6
ByLayer
 62
    2
370
   -1
100
AcDbPolyline
 90
    2
 70
    0
 43
0
 10
108750.0000000001
 20
74050
 10
120750.0000000002
 20
74050
  0
LWPOLYLINE
  5
7D
100
AcDbEntity
  8
0
  6
ByLayer
 62
    2
370
   -1
100
AcDbPolyline
 90
    2
 70
    0
 43
0
 10
99750.0000000001
 20
104050
 10
99750.0000000001
 20
82967.67049953679
  0
LWPOLYLINE
  5
7E
100
AcDbEntity
  8
0
  6
ByLayer
 62
    2
370
   -1
100
AcDbPolyline
 90
    2
 70
    0
 43
0
 10
69750.00000000003
 20
104050
 10
69750.00000000003
 20
83285.07082988974
  0
LWPOLYLINE
  5
7F
100
AcDbEntity
  8
0
  6
ByLayer
 62
    2
370
   -1
100
AcDbPolyline
 90
    2
 70
    0
 43
0
 10
73750.00000000003
 20
104050
 10
73750.00000000003
 20
83370.87897447951
  0
ARC
  5
80
100
AcDbEntity
  8
0
  6
ByLayer
 62
    7
370
   -1
100
AcDbCircle
 10
78750.00000000003
 20
104050
 40
1000
100
AcDbArc
 50
90
 51
180
  0
ARC
  5
81
100
AcDbEntity
  8
0
  6
ByLayer
 62
    7
370
   -1
100
AcDbCircle
 10
90750.00000000033
 20
104050
 40
1000
100
AcDbArc
 50
0
 51
90
  0
ARC
  5
82
100
AcDbEntity
  8
0
  6
ByLayer
 62
    7
370
   -1
100
AcDbCircle
 10
90750.00000000033
 20
83050
 40
1000
100
AcDbArc
 50
270
 51
0
  0
ARC
  5
83
100
AcDbEntity
  8
0
  6
ByLayer
 62
    7
370
   -1
100
AcDbCircle
 10
78750.00000000003
 20
83050
 40
1000
100
AcDbArc
 50
180
 51
270
  0
LINE
  5
84
100
AcDbEntity
  8
0
  6
ByLayer
 62
  256
370
   -1
100
AcDbLine
 10
40750
 20
105050
 11
64750
 21
105050
  0
ARC
  5
85
100
AcDbEntity
  8
0
  6
ByLayer
 62
  256
370
   -1
100
AcDbCircle
 10
64750
 20
104050
 40
1000
100
AcDbArc
 50
0
 51
90
  0
ARC
  5
86
100
AcDbEntity
  8
0
  6
ByLayer
 62
    7
370
   -1
100
AcDbCircle
 10
64750
 20
83050
 40
1000
100
AcDbArc
 50
270
 51
0
  0
ARC
  5
87
100
AcDbEntity
  8
0
  6
ByLayer
 62
    7
370
   -1
100
AcDbCircle
 10
27750
 20
83049.99999999999
 40
1000
100
AcDbArc
 50
180
 51
270
  0
ARC
  5
88
100
AcDbEntity
  8
0
  6
ByLayer
 62
    7
370
   -1
100
AcDbCircle
 10
90750.00000000033
 20
65050
 40
1000
100
AcDbArc
 50
0
 51
90
  0
ARC
  5
89
100
AcDbEntity
  8
0
  6
ByLayer
 62
    7
370
   -1
100
AcDbCircle
 10
78750.00000000003
 20
8050
 40
1000
100
AcDbArc
 50
180
 51
270
  0
ARC
  5
8A
100
AcDbEntity
  8
0
  6
ByLayer
 62
    7
370
   -1
100
AcDbCircle
 10
90750.00000000033
 20
8050
 40
1000
100
AcDbArc
 50
270
 51
0
  0
ARC
  5
8B
100
AcDbEntity
  8
0
  6
ByLayer
 62
    7
370
   -1
100
AcDbCircle
 10
108750.0000000001
 20
65050
 40
1000
100
AcDbArc
 50
90
 51
180
  0
ARC
  5
8C
100
AcDbEntity
  8
0
  6
ByLayer
 62
    7
370
   -1
100
AcDbCircle
 10
123750.0000000002
 20
65050.00000000001
 40
1000
100
AcDbArc
 50
0
 51
90
  0
LINE
  5
8D
100
AcDbEntity
  8
0
  6
ByLayer
 62
  256
370
   -1
100
AcDbLine
 10
118750
 20
7050
 11
108750.0000000001
 21
7050
  0
ARC
  5
8E
100
AcDbEntity
  8
0
  6
ByLayer
 62
  256
370
   -1
100
AcDbCircle
 10
108750.0000000001
 20
8050
 40
1000
100
AcDbArc
 50
180
 51
270
  0
LINE
  5
8F
100
AcDbEntity
  8
0
  6
ByLayer
 62
  256
370
   -1
100
AcDbLine
 10
26750
 20
17050
 11
26750
 21
65050
  0
LINE
  5
90
100
AcDbEntity
  8
0
  6
ByLayer
 62
  256
370
   -1
100
AcDbLine
 10
36750
 20
7050
 11
64750
 21
7050
  0
LINE
  5
91
100
AcDbEntity
  8
0
  6
ByLayer
 62
  256
370
   -1
100
AcDbLine
 10
65750
 20
65050
 11
65750
 21
8050
  0
ARC
  5
92
100
AcDbEntity
  8
0
  6
ByLayer
 62
  256
370
   -1
100
AcDbCircle
 10
27750
 20
65050
 40
1000
100
AcDbArc
 50
90
 51
180
  0
ARC
  5
93
100
AcDbEntity
  8
0
  6
ByLayer
 62
  256
370
   -1
100
AcDbCircle
 10
64750
 20
8050
 40
1000
100
AcDbArc
 50
270
 51
0
  0
LINE
  5
94
100
AcDbEntity
  8
0
  6
ByLayer
 62
  256
370
   -1
100
AcDbLine
 10
124750
 20
95550
 11
124750
 21
83049.99936634675
  0
ARC
  5
95
100
AcDbEntity
  8
0
  6
ByLayer
 62
  256
370
   -1
100
AcDbCircle
 10
123750.0000000002
 20
83050
 40
1000
100
AcDbArc
 50
270
 51
0
  0
ARC
  5
96
100
AcDbEntity
  8
0
  6
ByLayer
 62
    7
370
   -1
100
AcDbCircle
 10
108750.0000000001
 20
83050
 40
1000
100
AcDbArc
 50
180
 51
270
  0
LWPOLYLINE
  5
97
100
AcDbEntity
  8
0
  6
ByLayer
 62
    2
370
   -1
100
AcDbPolyline
 90
    2
 70
    0
 43
0
 10
99750.0000000001
 20
8050
 10
99750.0000000001
 20
62783.87339808012
  0
LINE
  5
98
100
AcDbEntity
  8
0
  6
ByLayer
 62
  256
370
   -1
100
AcDbLine
 10
108750.0000000001
 20
105050
 11
114750
 21
105050
  0
ARC
  5
99
100
AcDbEntity
  8
0
  6
ByLayer
 62
  256
370
   -1
100
AcDbCircle
 10
115166.3995131776
 20
95475.15738229216
 40
9583.892722085762
100
AcDbArc
 50
0.4474392434377576
 51
92.49016218515663
  0
ARC
  5
9A
100
AcDbEntity
  8
0
  6
ByLayer
 62
    7
370
   -1
100
AcDbCircle
 10
115171.0054523959
 20
95475.89132246427
 40
17579.15075880469
100
AcDbArc
 50
0.2415433535180535
 51
91.37231555636816
  0
ARC
  5
9B
100
AcDbEntity
  8
0
  6
ByLayer
 62
    7
370
   -1
100
AcDbCircle
 10
40750
 20
91049.99999999999
 40
22000.00000000001
100
AcDbArc
 50
90
 51
180
  0
ARC
  5
9C
100
AcDbEntity
  8
0
  6
ByLayer
 62
  256
370
   -1
100
AcDbCircle
 10
36750
 20
17050
 40
10000
100
AcDbArc
 50
180
 51
270
  0
ARC
  5
9D
100
AcDbEntity
  8
0
  6
ByLayer
 62
    7
370
   -1
100
AcDbCircle
 10
36750
 20
17050
 40
18000
100
AcDbArc
 50
180
 51
270
  0
ARC
  5
9E
100
AcDbEntity
  8
0
  6
ByLayer
 62
  256
370
   -1
100
AcDbCircle
 10
118750
 20
13050
 40
6000
100
AcDbArc
 50
270
 51
0
  0
ARC
  5
9F
100
AcDbEntity
  8
0
  6
ByLayer
 62
    7
370
   -1
100
AcDbCircle
 10
120750
 20
11050
 40
12000
100
AcDbArc
 50
270
 51
0
  0
ARC
  5
A0
100
AcDbEntity
  8
0
  6
ByLayer
 62
  256
370
   -1
100
AcDbCircle
 10
108750.0000000001
 20
104050
 40
1000
100
AcDbArc
 50
90
 51
180
  0
LINE
  5
A1
100
AcDbEntity
  8
0
  6
CONTINUOUS
 62
  256
370
   -1
100
AcDbLine
 10
66750
 20
109050
 11
40750.0000000001
 21
109050
  0
LINE
  5
A2
100
AcDbEntity
  8
0
  6
CONTINUOUS
 62
  256
370
   -1
100
AcDbLine
 10
22750
 20
89049.99999999999
 11
22750
 21
91050
  0
LINE
  5
A3
100
AcDbEntity
  8
0
  6
CONTINUOUS
 62
  256
370
   -1
100
AcDbLine
 10
80750.00000000001
 20
109050
 11
93750.00000000033
 21
109050
  0
LINE
  5
A4
100
AcDbEntity
  8
0
  6
CONTINUOUS
 62
  256
370
   -1
100
AcDbLine
 10
111750.0000000001
 20
109050
 11
115592.0109047908
 21
109050
  0
LINE
  5
A5
100
AcDbEntity
  8
0
  6
CONTINUOUS
 62
  256
370
   -1
100
AcDbLine
 10
128750
 20
95550
 11
128750
 21
89050
  0
LINE
  5
A6
100
AcDbEntity
  8
0
  6
CONTINUOUS
 62
  256
370
   -1
100
AcDbLine
 10
128750
 20
71050.00000000003
 11
128750
 21
13050
  0
LINE
  5
A7
100
AcDbEntity
  8
0
  6
CONTINUOUS
 62
  256
370
   -1
100
AcDbLine
 10
103750.0000000003
 20
62874.8846654765
 11
103750.0000000003
 21
8050
  0
LINE
  5
A8
100
AcDbEntity
  8
0
  6
CONTINUOUS
 62
  256
370
   -1
100
AcDbLine
 10
95750.00000000025
 20
62510.83691248553
 11
95750.00000000025
 21
8050
  0
LINE
  5
A9
100
AcDbEntity
  8
0
  6
CONTINUOUS
 62
  256
370
   -1
100
AcDbLine
 10
111750.0000000001
 20
3050
 11
118750
 21
3050
  0
LINE
  5
AA
100
AcDbEntity
  8
0
  6
CONTINUOUS
 62
  256
370
   -1
100
AcDbLine
 10
93750.00000000023
 20
3050.000000000016
 11
80750.00000000015
 21
3050.000000000016
  0
LINE
  5
AB
100
AcDbEntity
  8
0
  6
CONTINUOUS
 62
  256
370
   -1
100
AcDbLine
 10
66750
 20
3049.999999999994
 11
36750
 21
3050
  0
LINE
  5
AC
100
AcDbEntity
  8
0
  6
CONTINUOUS
 62
  256
370
   -1
100
AcDbLine
 10
22750
 20
17050
 11
22750
 21
71050
  0
LINE
  5
AD
100
AcDbEntity
  8
0
  6
CONTINUOUS
 62
  256
370
   -1
100
AcDbLine
 10
27750
 20
78049.99999999999
 11
66750.00000000013
 21
78049.99999999999
  0
LINE
  5
AE
100
AcDbEntity
  8
0
  6
CONTINUOUS
 62
  256
370
   -1
100
AcDbLine
 10
27750
 20
70050
 11
66750.00000000013
 21
70050
  0
LINE
  5
AF
100
AcDbEntity
  8
0
  6
CONTINUOUS
 62
  256
370
   -1
100
AcDbLine
 10
77750.00000000003
 20
78050
 11
90750.00000000033
 21
78050
  0
LINE
  5
B0
100
AcDbEntity
  8
0
  6
CONTINUOUS
 62
  256
370
   -1
100
AcDbLine
 10
77750.00000000003
 20
70050
 11
90750.00000000033
 21
70050
  0
LINE
  5
B1
100
AcDbEntity
  8
0
  6
CONTINUOUS
 62
  256
370
   -1
100
AcDbLine
 10
108750.0000000001
 20
78050
 11
120750.0000000002
 21
78050
  0
LINE
  5
B2
100
AcDbEntity
  8
0
  6
CONTINUOUS
 62
  256
370
   -1
100
AcDbLine
 10
108750.0000000001
 20
70050
 11
120750.0000000002
 21
70050
  0
LINE
  5
B3
100
AcDbEntity
  8
0
  6
CONTINUOUS
 62
  256
370
   -1
100
AcDbLine
 10
103750.0000000003
 20
82849.49780405987
 11
103750.0000000003
 21
104050
  0
LINE
  5
B4
100
AcDbEntity
  8
0
  6
CONTINUOUS
 62
  256
370
   -1
100
AcDbLine
 10
95750.00000000025
 20
104050
 11
95750.00000000025
 21
82967.67049953679
  0
ARC
  5
B5
100
AcDbEntity
  8
0
  6
CONTINUOUS
 62
  256
370
   -1
100
AcDbCircle
 10
40750
 20
91050
 40
18000
100
AcDbArc
 50
90
 51
180
  0
ARC
  5
B6
100
AcDbEntity
  8
0
  6
CONTINUOUS
 62
  256
370
   -1
100
AcDbCircle
 10
115166.3995131776
 20
95475.15738229216
 40
13583.80666834698
100
AcDbArc
 50
0.3156838080130274
 51
88.20419643877995
  0
ARC
  5
B7
100
AcDbEntity
  8
0
  6
CONTINUOUS
 62
  256
370
   -1
100
AcDbCircle
 10
36750
 20
17050
 40
14000
100
AcDbArc
 50
180
 51
270
  0
ARC
  5
B8
100
AcDbEntity
  8
0
  6
CONTINUOUS
 62
  256
370
   -1
100
AcDbCircle
 10
118750
 20
13050
 40
10000
100
AcDbArc
 50
270
 51
0
  0
LWPOLYLINE
  5
B9
100
AcDbEntity
  8
0
  6
ByLayer
 62
    2
370
   -1
100
AcDbPolyline
 90
    2
 70
    0
 43
0
 10
69799.99919477018
 20
63686.20866912126
 10
69799.99919477018
 20
8049.999947115896
  0
ARC
  5
BA
100
AcDbEntity
  8
0
  6
ByLayer
 62
  256
370
   -1
100
AcDbCircle
 10
64750
 20
65050
 40
1000
100
AcDbArc
 50
0
 51
90
  0
ARC
  5
BB
100
AcDbEntity
  8
0
  6
ByLayer
 62
    7
370
   -1
100
AcDbCircle
 10
78750.00000000003
 20
65050
 40
1000
100
AcDbArc
 50
90
 51
180
  0
LWPOLYLINE
  5
BC
100
AcDbEntity
  8
0
  6
ByLayer
 62
    2
370
   -1
100
AcDbPolyline
 90
    2
 70
    0
 43
0
 10
73849.99884371914
 20
63739.49215297669
 10
73849.99884371914
 20
8049.999841347688
  0
LINE
  5
BD
100
AcDbEntity
  8
ref_line
  6
ByLayer
 62
  256
370
   -1
100
AcDbLine
 10
132750
 20
68026.04619081167
 11
18750
 21
68026.04619081167
  0
LINE
  5
BE
100
AcDbEntity
  8
ref_line
  6
ByLayer
 62
  256
370
   -1
100
AcDbLine
 10
20741.03523337317
 20
113050
 11
20741.03523337317
 21
-950
  0
LINE
  5
BF
100
AcDbEntity
  8
ref_line
  6
ByLayer
 62
  256
370
   -1
100
AcDbLine
 10
130775.8626656454
 20
-950
 11
130775.8626656454
 21
113050
  0
LINE
  5
C0
100
AcDbEntity
  8
ref_line
  6
ByLayer
 62
  256
370
   -1
100
AcDbLine
 10
105763.3333483901
 20
-950
 11
105763.3333483901
 21
113050
  0
LINE
  5
C1
100
AcDbEntity
  8
ref_line
  6
ByLayer
 62
  256
370
   -1
100
AcDbLine
 10
101751.4162908988
 20
-950
 11
101751.4162908988
 21
113050
  0
LINE
  5
C2
100
AcDbEntity
  8
ref_line
  6
ByLayer
 62
  256
370
   -1
100
AcDbLine
 10
97760.55491437107
 20
-950
 11
97760.55491437107
 21
113050
  0
LINE
  5
C3
100
AcDbEntity
  8
ref_line
  6
ByLayer
 62
  256
370
   -1
100
AcDbLine
 10
75810.81734346869
 20
-950
 11
75810.81734346869
 21
113050
  0
LINE
  5
C4
100
AcDbEntity
  8
ref_line
  6
ByLayer
 62
  256
370
   -1
100
AcDbLine
 10
71794.04128267779
 20
-950
 11
71794.04128267779
 21
113050
  0
LINE
  5
C5
100
AcDbEntity
  8
ref_line
  6
ByLayer
 62
  256
370
   -1
100
AcDbLine
 10
67803.17990615006
 20
-950
 11
67803.17990615006
 21
113050
  0
LINE
  5
C6
100
AcDbEntity
  8
ref_line
  6
ByLayer
 62
  256
370
   -1
100
AcDbLine
 10
132750
 20
80034.49624341496
 11
18750
 21
80034.49624341496
  0
LINE
  5
C7
100
AcDbEntity
  8
ref_line
  6
ByLayer
 62
  256
370
   -1
100
AcDbLine
 10
132816.7480270938
 20
76007.76894387076
 11
18816.74802709384
 21
76007.76894387076
  0
LINE
  5
C8
100
AcDbEntity
  8
ref_line
  6
ByLayer
 62
  256
370
   -1
100
AcDbLine
 10
132816.7480270938
 20
71990.99288307977
 11
18816.74802709384
 21
71990.99288307977
  0
LINE
  5
C9
100
AcDbEntity
  8
ref_line
  6
ByLayer
 62
  256
370
   -1
100
AcDbLine
 10
24816.52425069809
 20
113050
 11
24816.52425069809
 21
-2020.367161468224
  0
LINE
  5
CA
100
AcDbEntity
  8
ref_line
  6
ByLayer
 62
  256
370
   -1
100
AcDbLine
 10
132750
 20
106996.6709400141
 11
16590.28058654799
 21
106996.6709400141
  0
LINE
  5
CB
100
AcDbEntity
  8
ref_line
  6
ByLayer
 62
  256
370
   -1
100
AcDbLine
 10
132750
 20
111017.8040894467
 11
16590.28058654799
 21
111017.8040894467
  0
LINE
  5
CC
100
AcDbEntity
  8
ref_line
  6
ByLayer
 62
  256
370
   -1
100
AcDbLine
 10
132750
 20
5010.772938206675
 11
16590.28058654799
 21
5010.772938206675
  0
LINE
  5
CD
100
AcDbEntity
  8
ref_line
  6
ByLayer
 62
  256
370
   -1
100
AcDbLine
 10
132750
 20
1032.311221948506
 11
16590.28058654799
 21
1032.311221948506
  0
LINE
  5
CE
100
AcDbEntity
  8
ref_line
  6
ByLayer
 62
  256
370
   -1
100
AcDbLine
 10
126779.419120454
 20
-950
 11
126779.419120454
 21
113050
  0
LINE
  5
CF
100
AcDbEntity
  8
ref_line
  6
ByLayer
 62
  256
370
   -1
100
AcDbLine
 10
93792.869892203
 20
-950
 11
93792.869892203
 21
113050
  0
ARC
  5
D0
100
AcDbEntity
  8
ref_line
  6
ByLayer
 62
  256
370
   -1
100
AcDbCircle
 10
24817.52425069809
 20
113050
 40
1
100
AcDbArc
 50
0
 51
180
  0
ARC
  5
D1
100
AcDbEntity
  8
ref_line
  6
ByLayer
 62
  256
370
   -1
100
AcDbCircle
 10
24817.52425069809
 20
113050
 40
1
100
AcDbArc
 50
270
 51
180
  0
ENDSEC
  0
SECTION
  2
OBJECTS
  0
DICTIONARY
  5
C
330
0
100
AcDbDictionary
281
    1
  3
ACAD_GROUP
350
D
  0
DICTIONARY
  5
D
330
C
100
AcDbDictionary
281
    1
  0
ENDSEC
  0
EOF
